# xmcd
#
# Track frame offsets: 
#        182
#        14567
#        26935
#        46482
#        62060
#        70280
#        81192
#        94062
#        108422
#        114377
#        128195
#        141455
#
# Disc length: 2143 seconds
#
# Revision: 4
# Processed by: cddbd v1.5.2PL0 Copyright (c) Steve Scherf et al.
# Submitted via: ExactAudioCopy v0.99pb3
#
DISCID=af085d0c
DTITLE=T-Bone Walker - Stormy Monday
DYEAR=1997
DGENRE=Blues
TTITLE0=Left Home When I Was A Kid
TTITLE1=Glamour Girl
TTITLE2=(You'll Never Find Anyone) To Be A Slave Like Me
TTITLE3=When We Were Schoolmates
TTITLE4=Got To Cross The Deep Blue Sea
TTITLE5=My Patience Keeps Running Out
TTITLE6=Stormy Monday Blues
TTITLE7=Louisiana Bayou Drive
TTITLE8=Don't Go Back To New Orleans
TTITLE9=That Evening Train
TTITLE10=All Night Long
TTITLE11=T Bone's That Way
EXTD=YEAR: 1997
EXTT0=
EXTT1=
EXTT2=
EXTT3=
EXTT4=
EXTT5=
EXTT6=
EXTT7=
EXTT8=
EXTT9=
EXTT10=
EXTT11=
PLAYORDER=
